<?xml version="1.0" standalone="no"?>
<!DOCTYPE svg PUBLIC "-//W3C//DTD SVG 20010904//EN"
 "http://www.w3.org/TR/2001/REC-SVG-20010904/DTD/svg10.dtd">
<svg version="1.0" xmlns="http://www.w3.org/2000/svg"
 width="1408.000000pt" height="768.000000pt" viewBox="0 0 1408.000000 768.000000"
 preserveAspectRatio="xMidYMid meet">

<g transform="translate(0.000000,768.000000) scale(0.100000,-0.100000)"
fill="#000000" stroke="none">
<path d="M6760 6218 c-90 -156 -274 -472 -408 -703 -135 -231 -407 -699 -605
-1040 -198 -341 -437 -753 -532 -915 -94 -162 -247 -425 -340 -585 -92 -159
-183 -315 -201 -345 -18 -30 -31 -56 -29 -58 2 -2 160 88 350 200 l347 203
399 685 c220 377 484 830 587 1007 l187 321 3 -270 2 -271 -121 -211 c-67
-116 -220 -379 -341 -584 -120 -205 -218 -374 -218 -376 0 -2 129 74 288 168
158 95 403 241 545 325 l257 153 0 1289 c0 709 -2 1289 -3 1289 -2 0 -77 -127
-167 -282z"/>
<path d="M7150 6106 l0 -398 39 -66 c295 -508 984 -1694 1034 -1779 98 -167
94 -157 60 -139 -15 8 -125 73 -243 144 l-215 128 -111 189 c-61 105 -202 348
-314 540 -111 193 -213 368 -226 390 l-24 40 0 -617 0 -616 43 -25 c23 -13
240 -142 482 -287 242 -145 499 -298 570 -340 72 -42 274 -162 450 -267 486
-288 733 -433 740 -433 3 0 -5 19 -19 43 -67 115 -502 865 -599 1032 -61 105
-125 215 -142 245 -52 91 -779 1341 -890 1530 -99 169 -280 481 -508 875 -60
105 -114 194 -118 200 -5 5 -9 -167 -9 -389z"/>
<path d="M7000 3718 c-19 -12 -219 -131 -445 -266 -225 -135 -516 -308 -645
-385 -243 -145 -413 -246 -729 -433 l-185 -109 1022 -3 c562 -1 1482 -1 2044
0 l1023 3 -330 195 -329 195 -976 5 -975 5 230 137 230 138 500 0 c421 0 497
2 485 14 -8 7 -64 42 -125 78 -60 36 -255 151 -432 256 -177 106 -324 192
-325 192 -2 0 -19 -10 -38 -22z"/>
<path d="M4680 2307 c0 -2 98 -174 218 -383 l218 -379 79 -22 c44 -12 477
-119 963 -238 l882 -217 598 147 c328 80 761 187 962 236 l365 90 218 381
c120 209 217 382 214 384 -2 2 -284 3 -626 2 l-621 -3 120 -209 c66 -115 120
-212 120 -215 0 -3 -125 -37 -278 -74 -152 -38 -456 -113 -674 -166 l-397 -98
-675 166 c-372 91 -676 169 -676 173 0 3 54 99 120 213 66 114 120 209 120
211 0 2 -281 4 -625 4 -344 0 -625 -1 -625 -3z"/>
</g>
</svg>
